<?xml version="1.0" encoding="UTF-8"?>
<svg xmlns="http://www.w3.org/2000/svg" version="1.1" viewBox="0 0 585 527">
  <defs>
    <style>
      .cls-1 {
        fill: #74af62;
      }

      .cls-1, .cls-2, .cls-3, .cls-4, .cls-5, .cls-6, .cls-7, .cls-8, .cls-9, .cls-10, .cls-11, .cls-12, .cls-13, .cls-14, .cls-15, .cls-16, .cls-17, .cls-18, .cls-19, .cls-20, .cls-21, .cls-22, .cls-23, .cls-24, .cls-25, .cls-26, .cls-27, .cls-28, .cls-29, .cls-30, .cls-31, .cls-32, .cls-33 {
        fill-rule: evenodd;
      }

      .cls-2 {
        fill: #6ba85d;
      }

      .cls-3 {
        fill: #7fb768;
      }

      .cls-4 {
        fill: #77b164;
      }

      .cls-5 {
        fill: #3d7a44;
      }

      .cls-6 {
        fill: #32703e;
      }

      .cls-7 {
        fill: #acd881;
      }

      .cls-8 {
        fill: #6ba95e;
      }

      .cls-9, .cls-34 {
        fill: #32703d;
      }

      .cls-10 {
        fill: #6fac60;
      }

      .cls-11 {
        fill: #a6d47e;
      }

      .cls-12 {
        fill: #aed982;
      }

      .cls-13 {
        fill: #548d50;
      }

      .cls-14 {
        fill: #548e50;
      }

      .cls-15 {
        fill: #76b163;
      }

      .cls-16 {
        fill: #6aa85d;
      }

      .cls-17 {
        fill: #397541;
      }

      .cls-18 {
        fill: #69a85c;
      }

      .cls-19 {
        fill: #6daa5e;
      }

      .cls-20, .cls-35 {
        fill: #377440;
      }

      .cls-36, .cls-27 {
        fill: #aeda82;
      }

      .cls-21 {
        fill: #7eb668;
      }

      .cls-22 {
        fill: #3d7943;
      }

      .cls-23 {
        fill: #4b844b;
      }

      .cls-24 {
        fill: #add982;
      }

      .cls-25 {
        fill: #79b265;
      }

      .cls-26 {
        fill: #518b4e;
      }

      .cls-28 {
        fill: #70ac60;
      }

      .cls-29 {
        fill: #387541;
      }

      .cls-30 {
        fill: #34713f;
      }

      .cls-31 {
        fill: #33713e;
      }

      .cls-32 {
        fill: #35733f;
      }

      .cls-33 {
        fill: #6ba95d;
      }
    </style>
  </defs>
  <!-- Generator: Adobe Illustrator 28.7.1, SVG Export Plug-In . SVG Version: 1.2.0 Build 142)  -->
  <g>
    <g id="Layer_1">
      <path class="cls-8" d="M247.1,121.8c-25.5-21.1-30.6-61.6-8.5-87,10.3-12.1,24.5-20.8,40.3-22.7,28.5-3.7,59.1,13.9,67.4,41.9,18.5,59.9-50.1,109-99.1,67.9h-.2Z"/>
      <path class="cls-33" d="M73.6,140.1c29.4-4.9,59.7,10.1,70.8,38.3,21.1,52-26.1,102.4-79.2,86.7-34.2-10.5-52.9-49.3-41.4-82.7,7.1-21.5,26.8-38.6,49.6-42.2h.2Z"/>
      <path class="cls-24" d="M480.7,139.5c30.9-5.2,66,17.3,71.7,48.4,1.6,7.7,1.6,17,.2,25.3-11.9,74-116,72.8-126.8-1.5-3.6-23.4,6-45.7,24.8-60.5,5.9-4.3,11.9-7.9,18.7-9.5,3.7-.9,7.4-1.6,11.1-2.2h.2Z"/>
      <path class="cls-27" d="M278.5,164.5c10.4-.9,20.4.4,30,4-4.2,2.4-6.4,6.1-6.5,11-1.2,1.7-2.3,3.3-3.5,5-7.9,3.4-15.9,6.6-24,9.5-2.7,2.6-5,5.4-7,8.5-10,.8-13.8-3.8-11.5-14,.4-.9.9-1.8,1.5-2.5-.7-2.5-1.4-5-2-7.5-3.6-1.3-7.2-2.3-11-3,2.3-1.5,4.7-3,7-4.5-7.4.1-14.1,2.5-20,7-3.7.5-7.3.7-11,.5v-3c5.9-2,11.6-4.5,17-7.5,11.3-.3,22.7-.7,34-1,2.5-.7,4.8-1.5,7-2.5Z"/>
      <path class="cls-16" d="M394.5,188.5c-2.3,4.3-5.7,7.7-10,10-1.5,0-2.5-.6-3-2,1.2-1.1,2.5-1.9,4-2.5-7.9-5.3-16.6-7.6-26-7-3.2,1.6-5.4,4.1-6.5,7.5-1.7,2.2-3.9,3.9-6.5,5-1.4,2.9-1.1,5.6,1,8,2.9.8,5.9,1.3,9,1.5,6.1,6.5,8.9,5.4,8.5-3.5-3.2-4.3-2.2-7.7,3-10,1.2,2.5,1.9,5.1,2,8,2.6,1.7,5.4,2.9,8.5,3.5-1.2,1.1-2.5,1.9-4,2.5-.7,2.9-2,5.4-4,7.5-6.6,1.9-12.1.4-16.5-4.5-.2,2.3-.7,4.4-1.5,6.5-4.9,4.1-10.3,7.6-16,10.5,1,1.5,2.1,2.8,3.5,4,.7,2,.7,4,0,6-4.4,1-8.9,1.3-13.5,1-1.8,13.1,3.6,17.6,16,13.5,2.8-4.3,5.8-8.5,9-12.5,1.9-1,3.9-1.6,6-2,5.7,2.9,11,6.4,16,10.5,1.7.7,3.3.7,5,0-3.5-3.8-7.3-7.3-11.5-10.5-.6-1-.3-1.6,1-2,7.6,2.6,12.9,7.6,16,15,1.1,1.5,2.6,2.2,4.5,2v-7h4c.3,3.2,1.6,5.9,4,8,4.9.9,9.7,1.9,14.5,3,2.8,7.5.2,11.2-8,11-5.3-.4-10.1-2-14.5-5-2,.9-3.4,2.4-4,4.5-6.2-.7-11.7-3.2-16.5-7.5-.7-2.3-1.2-4.6-1.5-7-6.7.3-13.3.8-20,1.5-3.7,2-7.7,3-12,3-4.6,2.5-7.5,6.3-8.5,11.5-4.8,3.8-8.4,8.4-11,14-.7,7.7-.7,15.3,0,23,2.6,3.5,4.9,7.2,7,11,1,.8,2.2,1.2,3.5,1-8.4,6.1-11.8,14.3-10,24.5,11.8,9.8,16.3,22.3,13.5,37.5-2.2,5.7-4.4,11.4-6.5,17-.6-.1-1.1-.4-1.5-1-7.3,9-16.8,14-28.5,15,.3,1.9,0,3.6-1,5-1.6-23.6-2.9-47.3-4-71-.7,4.1-1.3,8.1-2,12,.8-21.3-.7-40.7-.5-62-1.9-2.4-2-4.5-4.5-2.5-13.8,13.5-20.6,30-20.5,49.5-1,1.2-2.2,2.2-3.5,3-2.2-6.3-4.9-12.5-8-18.5,2-.5,4-.7,6-.5-2.3-7.1-5.3-13.9-9-20.5.9-.4,1.6-1.1,2-2-3.6-9.1-7-18.3-10-27.5h-4c-1.2,10.2-4.9,19.3-11,27.5,1.3.7,2.7,1.3,4,2-1.9,3.6-3.9,7.1-6,10.5-.5-1.2-1.2-2.4-2-3.5-3.6-1.3-7.2-2.1-11-2.5v3c-2.2-5.9-6.6-8.5-13-8-.2-6.2-3.2-10.4-9-12.5-4.8-.8-9.5-.3-14,1.5v-6c-2.1-.3-4.1,0-6,1-3.6,6.5-7.5,6.5-11.5,0-3.3-11.2.9-17.7,12.5-19.5,4.4-.8,8.7-.7,13,.5.8,2.4,1.8,4.7,3,7,.8.9,1.8,1.2,3,1,.2-4.7.8-9.4,2-14,6.8-4.1,11.8-9.8,15-17,4.1-2.3,7.5-5.5,10-9.5,5.4-1,10.7-2.1,16-3.5,1.3-.9,1.1-1.5-.5-2-1.8-.7-3.6-1.1-5.5-1v-3h-3c-.2-1.9.5-3.4,2-4.5,4.4-.2,8.7-.7,13-1.5l3,1.5c-2.1,1.7-2.4,3.7-1,6,2.6.5,5.3.7,8,.5-2.2-4.7-3.7-9.7-4.5-15-3.4-2.9-5.2-6.6-5.5-11-5.2,1-9.5-.4-13-4-4.3-2.1-7.4-1.1-9.5,3-.9,2.6-1.6,5.3-2,8-3.4,3-6.4,6.4-9,10-.9-6.1-4.4-9.1-10.5-9-.9-4.4.5-7.9,4-10.5,10.1-4.2,19.5-9.7,28-16.5,1.8.6,3.1,1.8,4,3.5-1.3,2.3-3,4.3-5,6,3.7,2.7,7.7,3.6,12,2.5,1.1-4,3.8-5.7,8-5v-4c-2.8.2-4.5-1.1-5-4-6.2-3.6-12.8-4.7-20-3.5-2.2,2-3.2,4.5-3,7.5-4.3-.2-5-1.9-2-5-.4-1.2-1.2-1.9-2.5-2l-8.5,8.5c-5.9,1.5-11.9,2.1-18,2-2.1-.7-3.8-1.9-5-3.5,30.9-23.4,65.9-35.1,105-35,33-1.2,64,6,93,21.5,7.1,3.2,13.4,7.4,19,12.5Z"/>
      <path class="cls-12" d="M171.5,295.5c-2.8,2.6-4.8,5.6-6,9-7.6-2-15.3-4.3-23-7-2.5-9.5-5.6-18.9-9.5-28-.3,5-.7,10-1,15-.3-.3-.7-.7-1-1-1.4-6.6-2.9-12.9-4.5-19,10-7.9,18.5-17.3,25.5-28,3-10.1,5-20.5,6-31,6.4-5.5,12.9-10.8,19.5-16,1.2,1.6,2.9,2.8,5,3.5,6.1.1,12.1-.5,18-2l8.5-8.5c1.3.1,2.1.8,2.5,2-3,3.1-2.3,4.8,2,5-.2-3,.8-5.5,3-7.5,7.2-1.2,13.8,0,20,3.5.5,2.9,2.2,4.2,5,4v4c-4.2-.7-6.9,1-8,5-4.3,1.1-8.3.2-12-2.5,2-1.7,3.7-3.7,5-6-.9-1.7-2.2-2.9-4-3.5-8.5,6.8-17.9,12.3-28,16.5-3.5,2.6-4.9,6.1-4,10.5,6.1,0,9.6,2.9,10.5,9,2.6-3.6,5.6-7,9-10,.4-2.7,1.1-5.4,2-8,2.1-4.1,5.2-5.1,9.5-3,3.5,3.6,7.8,5,13,4,.3,4.4,2.1,8.1,5.5,11,.8,5.3,2.3,10.3,4.5,15-2.7.2-5.4,0-8-.5-1.4-2.3-1.1-4.3,1-6l-3-1.5c-4.3.8-8.6,1.3-13,1.5-1.5,1.1-2.2,2.6-2,4.5h3v3c1.9,0,3.7.3,5.5,1,1.6.5,1.8,1.1.5,2-5.3,1.4-10.6,2.5-16,3.5-2.5,4-5.9,7.2-10,9.5-3.2,7.2-8.2,12.9-15,17-1.2,4.6-1.8,9.3-2,14-1.2.2-2.2-.1-3-1-1.2-2.3-2.2-4.6-3-7-4.3-1.2-8.6-1.3-13-.5-11.6,1.8-15.8,8.3-12.5,19.5,4,6.5,7.9,6.5,11.5,0,1.9-1,3.9-1.3,6-1v6Z"/>
      <path class="cls-12" d="M394.5,188.5c7.9,4.7,15,10.4,21.5,17,.4,12.5,3.8,24.2,10,35,6.1,7.8,8.6,14.4,19.5,22.5,10.9,8.1,21.5,12.5,21.5,12.5,2.9,4.9,5.5,16,5.5,16,0,0-9.7-.6-13-4.5-9-2.6-16.8-7.1-23.5-13.5-.7.5-1.2,1.2-1.5,2,2.3,6.1,6.6,9.9,13,11.5,3.1,7.1,1.8,13.4-4,19-3.6,3-7.6,3.8-12,2.5-4.2-11.4-10.2-21.8-18-31-1.5-1.4-2.9-1.2-4,.5,7.4,12.4,15.3,24.6,23.5,36.5,3.7.6,7.6.6,11.5,0-1.5,7.4-4.1,14.4-8,21-1.2.9-2.5,1.3-4,1-6.8-12.2-12.4-24.8-17-38-.1-3.1-8-3-8-3l-15.5,39-.5,3s6.9-1,8,2.5-2.9,5.1-4.5,7.5c-2.9,4.6-5.6,8.6-2.5-1-3.4-12.8-10.7-22.8-22-30-1.3-6.6-2.5-13.3-3.5-20-7.2-10.1-16.3-12.6-27.5-7.5-2.9,2.3-5.1,5.1-6.5,8.5-.3,6-1,12-2,18-1.4,1.9-3.3,3.3-5.5,4-1.3.2-2.5-.2-3.5-1-2.1-3.8-4.4-7.5-7-11-.7-7.7-.7-15.3,0-23,2.6-5.6,6.2-10.2,11-14,1-5.2,3.9-9,8.5-11.5,4.3,0,8.3-1,12-3,6.7-.7,13.3-1.2,20-1.5.3,2.4.8,4.7,1.5,7,4.8,4.3,10.3,6.8,16.5,7.5.6-2.1,2-3.6,4-4.5,4.4,3,9.2,4.6,14.5,5,8.2.2,10.8-3.5,8-11-4.8-1.1-9.6-2.1-14.5-3-2.4-2.1-3.7-4.8-4-8h-4v7c-1.9.2-3.4-.5-4.5-2-3.1-7.4-8.4-12.4-16-15-1.3.4-1.6,1-1,2,4.2,3.2,8,6.7,11.5,10.5-1.7.7-3.3.7-5,0-5-4.1-10.3-7.6-16-10.5-2.1.4-4.1,1-6,2-3.2,4-6.2,8.2-9,12.5-12.4,4.1-17.8-.4-16-13.5,4.6.3,9.1,0,13.5-1,.7-2,.7-4,0-6-1.4-1.2-2.5-2.5-3.5-4,5.7-2.9,11.1-6.4,16-10.5.8-2.1,1.3-4.2,1.5-6.5,4.4,4.9,9.9,6.4,16.5,4.5,2-2.1,3.3-4.6,4-7.5,1.5-.6,2.8-1.4,4-2.5-3.1-.6-5.9-1.8-8.5-3.5-.1-2.9-.8-5.5-2-8-5.2,2.3-6.2,5.7-3,10,.4,8.9-2.4,10-8.5,3.5-3.1-.2-6.1-.7-9-1.5-2.1-2.4-2.4-5.1-1-8,2.6-1.1,4.8-2.8,6.5-5,1.1-3.4,3.3-5.9,6.5-7.5,9.4-.6,18.1,1.7,26,7-1.5.6-2.8,1.4-4,2.5.5,1.4,1.5,2,3,2,4.3-2.3,7.7-5.7,10-10Z"/>
      <path class="cls-27" d="M299.5,190.5c5.4.2,10.7.7,16,1.5,1.1,2.6.1,3.9-3,4-4,.7-8,.7-12,0-1.4-1.9-1.7-3.7-1-5.5Z"/>
      <path class="cls-27" d="M329.5,207.5c2-.2,3.8,0,5.5,1,2.7,4,5.3,8,8,12,.6.9.5,1.8-.5,2.5-3,.7-6,.7-9,0,.7-1.3,1.3-2.7,2-4-2.7-3.5-4.7-7.3-6-11.5Z"/>
      <path class="cls-27" d="M325.5,214.5h4c.9,5-1.1,7.3-6,7-.3-2.7.4-5,2-7Z"/>
      <path class="cls-2" d="M126.5,264.5c1.6,6.1,3.1,12.4,4.5,19,.3.3.7.7,1,1,.3-5,.7-10,1-15,3.9,9.1,7,18.5,9.5,28,7.7,2.7,15.4,5,23,7-13.2,5.5-16.9,15.2-11,29-.9,3.6-2.9,4.9-6,4-2.8-4.5-5.3-9.2-7.5-14-4.9-6.5-9.5-6.2-14,1-2.7,5.5-4.9,11.1-6.5,17-7.7-4.4-15.7-5.1-24-2-.6-.1-.9-.5-1-1,.1-20.2,3.3-39.9,9.5-59,1-2.2,2.2-4.4,3.5-6.5,6.3-2.2,12.3-5,18-8.5Z"/>
      <path class="cls-4" d="M46.3,267.8c2.5-1.5,3.1,1.9,2.5,4-3.4,18.8-4.8,37.8-3.8,57,1.7,15.7,5.2,31.2,8.2,46.6.6,4.3-3.6,3.9-5.2.6-9.6-30.9-11.1-63.7-6.4-95.7.5-2.9,1.3-5.8,2.2-8.5.5-1.6,1.3-3.1,2.4-3.8h.1Z"/>
      <path class="cls-3" d="M525.9,377.2c-3.9-2.4,1.8-26.4,2.3-31.7,4.3-23,3.3-46.6.2-69.6-.2-1.8-.4-3.7-.2-5.4.1-1.4,1-3,2.1-1.2,9.7,33,7.4,68.4-.9,101.5-.6,2-1.7,6.1-3.5,6.3h0Z"/>
      <path class="cls-2" d="M472.5,291.5s4.4,10,5.5,24,.9,11.7.5,26c-8.8-3.7-16.6-2.3-23.5,4-.8,1.7-1.7,3.3-2.5,5-5.9,1.2-10.9,3.8-15,8-4.3-5.8-8-11.9-11-18.5,2.5-.4,4.5-1.6,6-3.5,1.5.3,2.8,0,4-1,3.9-6.6,6.5-13.6,8-21-3.9.6-7.8.6-11.5,0-8.2-11.9-16.1-24.1-23.5-36.5,1.1-1.7,2.5-1.9,4-.5,7.8,9.2,13.8,19.6,18,31,4.4,1.3,8.4.5,12-2.5,5.8-5.6,7.1-11.9,4-19-6.4-1.6-10.7-5.4-13-11.5.3-.8.8-1.5,1.5-2,6.7,6.4,14.5,10.9,23.5,13.5,3.3,3.9,13,4.5,13,4.5Z"/>
      <path class="cls-25" d="M59.4,274.8c2.6-1.5,2.5,4.3,2.2,6.3-.7,6.3-1.4,12.7-2,19.1-2.5,19.2.9,38.5,2.9,57.6.3,1.9.6,6.1-1,6.7-.7.2-1.6-.6-2.3-2.2-1.2-2.6-1.4-5.6-2.1-8.5-1.4-6-.6-1.9-2.6-18.1s-.7-30.2.5-45.2c.5-3.7,1.3-7.4,2.2-10.9.4-1.7,1.3-4.1,2.3-4.8h0Z"/>
      <path class="cls-21" d="M512.3,274.8c1.9-1.4,4.1,1.4,4.2,3.5,4.2,26.4,3.9,52.8-.9,79.1-.2,1.7-1.5,4.2-3.3,3.9-2.3-.4-1.8-4.2-1.5-6.1,4.3-25.7,4.7-51.3,1.1-77-.2-1-.3-2.6.2-3.2h0Z"/>
      <path class="cls-6" d="M249.1,357.5l-3.6,15,2,8,2,10s-11.8-13.1-16-15c-2.9-15.3-11.9-21.9-27-20-8.6,2.8-13.5,8.8-14.5,18-14.4,11.3-19.8,25.9-16,44,.9,3.5,2.3,6.8,4,10,2.4,2.6,4.6,5.2,6.5,8"/>
      <path class="cls-6" d="M199.5,458.5c-11.5,1-23.2,1.3-35,1v22h-9v-23c1.9.2,3.4-.5,4.5-2,.7-38,.7-76,0-114-.7-1.3-1.3-1.3-2,0-4,10.9-8.5,21.5-13.5,32-.8.9-1.8,1.2-3,1-1.9-3.8-4.9-6.5-9-8-1.6-6-3.1-12-4.5-18-2-3.2-4.5-5.8-7.5-8,1.6-5.9,3.8-11.5,6.5-17,4.5-7.2,9.1-7.5,14-1,2.2,4.8,4.7,9.5,7.5,14,3.1.9,5.1-.4,6-4-5.9-13.8-2.2-23.5,11-29,1.2-3.4,3.2-6.4,6-9,4.5-1.8,9.2-2.3,14-1.5,5.8,2.1,8.8,6.3,9,12.5,6.4-.5,10.8,2.1,13,8,1.8,2.3,2.8,5,3,8-.6,4.1-2,7.9-4,11.5,2.8,4,5.5,8.2,8,12.5,3.4-5.3,6.1-11,8-17l-6-3c1.6-2.9,3-5.9,4-9,2.1-3.4,4.1-6.9,6-10.5-1.3-.7-2.7-1.3-4-2,6.1-8.2,9.8-17.3,11-27.5h4c3,9.2,6.4,18.4,10,27.5-.4.9-1.1,1.6-2,2,3.7,6.6,6.7,13.4,9,20.5-2-.2-4,0-6,.5,3.1,6,5.8,12.2,8,18.5-4,4.1-4.6,5.4-7,10"/>
      <path class="cls-13" d="M501.8,345.6c-1.6.7-2.2-2.1-2.1-3.9.6-19.6,1.9-39.8-1.7-59-.4-1.7-.3-4.5,1.2-4.9,1.7-.4,2.8,2.7,3,4.7,2.7,19.4,3.1,39,1.5,58.6-.1,1.7-.6,3.9-1.8,4.5h-.1Z"/>
      <path class="cls-23" d="M73.9,279.2c3.3-.3,2.5,5.2,2.4,7.4-1.6,15.3-2,30.6-1.5,45.9,0,4-.1,8-.7,12-1,4.1-2.8-.8-2.9-2.6-1.9-18.1-2.1-36.2-.5-54.4.3-2.7.6-7,3.1-8.2h.1Z"/>
      <path class="cls-14" d="M85.2,280.4c2.7,0,2.1,6.7,2,8.9-1.2,11.7-1.6,23.3-.9,35,.1,3.1.3,6.9-.6,9.8-.9,2.8-2.5,3.2-3.4.3-.5-1.6-.7-3.8-.7-5.7-.3-13.2,0-26.5.9-39.7.3-2.7.6-7.1,2.8-8.5h0Z"/>
      <path class="cls-26" d="M490,282.9c.6,1,.9,2.5,1.1,3.8,2.1,16.7,3.3,33.7,1.3,50.2-.8,2.3-2.2,1.6-2.6-.6-.4-2.1-.4-4.5-.4-6.7.5-15.1-.6-30-1.9-45-.1-1.6.8-4.2,2.4-1.9h0Z"/>
      <path class="cls-27" d="M178.5,285.5c3-.2,6,0,9,.5,6,2.9,12,5.8,18,8.5-1.2.9-2.6,1.5-4,2-2.9-1.5-5.5-3.2-8-5-5-.8-10-1.7-15-2.5-.7-1-.7-2.2,0-3.5Z"/>
      <path class="cls-6" d="M337.5,415c-4.8-5.7-9.8-11.2-15-16.5,2.1-5.6,4.3-11.3,6.5-17,2.8-15.2-1.7-27.7-13.5-37.5-1.8-10.2,1.6-18.4,10-24.5,2.2-.7,4.1-2.1,5.5-4,1-6,1.7-12,2-18,1.4-3.4,3.6-6.2,6.5-8.5,11.2-5.1,20.3-2.6,27.5,7.5,1,6.7,2.2,13.4,3.5,20,11.3,7.2,18.6,17.2,22,30,.2,1.7,0,3.4-.5,5-3,3.5-5.9,7.2-8.5,11,2.9,1.4,5.9,2.8,9,4-3.5,7-7.5,13.7-12,20-1-1.4-2-2.7-3-4-1-2.7-2.5-5-4.5-7-9.8,15-18.2,31-25,48-.4-.6-.9-.9-1.5-1"/>
      <path class="cls-12" d="M285.6,358.7c-.8,14.4-2.1,28.7-2.1,43.2,0,3.1,1.5,8.1-.2,9.7-1.3,1.2-5.2-.3-8-1.1-5.2-1.2-10.7-2.6-15.2-5.5-6-4.3-10-11.4-12.7-18.3-2.5-7-2.2-14.6-.5-21.8,1.1-4.7,2.6-9.5,5.2-13.4,3.3-4.7,7-9.3,7.9-15.2,1.7-14,6-27.2,15-38.1,5.5-6.9,11.7-8,11.9,2.7,0,19.1-.7,38.5-1.4,57.6v.2Z"/>
      <path class="cls-2" d="M414.8,298.3c-.6-.3-.9-.8-.9-.8,0,0,4.2,134.8-.5,138,0,0-3,2-3,2-1.7,25.8-2.7,44.9-2,45,1.1,0,3.7-43-1-44-.4,0-1.9-.2-3.7,0-1.5.2-2.7.3-3.3,1,0,0-.2.2-.3.1-1-.3.4-4.2.3-3.1-.3-1.3-.6-2.7-1-4-4.3-16.4-10.6-31-18-44"/>
      <path class="cls-2" d="M377.5,385.5c-.3-1.1,1.7-2.3,6.4-9.8,2.5-4,4.4-7.6,5.6-10.2-3.1-1.2-6.1-2.6-9-4,2.6-3.8,5.5-7.5,8.5-11,1.3-1.5,2.3-2.9,3-4,1.3-1.8,1-1.6,2.3-3.7,1.8-2.7,2.4-3.2,2.2-3.8-.4-1-2.7-1.1-4.1-1.2-2.2-.1-3.4.4-3.9-.3-.3-.4-.2-.9,0-2,.1-.9.4-1.6.5-2,2.7-7,2.2-4.8,6.7-13.6,4.1-7.9,5.6-23.3,12.8-25.4.6-.2,1.5-.3,2.8-.1,15.5,5.7.7,44.3,10.9,52.6,12.1,9.9,48.1-10.3,51.2-.5,1.5,4.8,1.8,9.2.9,13.2-7.5,31.6-94.7,32.7-96.7,25.8Z"/>
      <path class="cls-30" d="M417.3,299.2c3.2,3.7,19.1,39.2,19.1,39.2,0,0-1.8-1.9-8.8,2.1,1.4,5.7,5.3,11.3,9,15.8,2,1.3,3.7-.9,5.9-2.2,2.3-1.6,5-2.6,7.6-3.6,3-1.1,4-4.2,6.1-6.3,5.4-5,12.4-6.4,19.5-4.2,4.5,1,6.6,5.2,9.9,7.8,10.5,3.5,21,14.1,18.1,26-1.4,3.8,1.7,6,3.7,8.7,5.2,8.9,3.7,21-3.8,28.3-2.4,2.9-5.2,5.5-9.2,5.5-7.5,1-16.6,1.9-22,7.6-1,1.9-.5,4.3-.3,6.4.7,5.6.3,11.4.2,17.2.2,7.1,0,14.3,2.2,20.9,1.3,2.4,4.6,2.6,6.5,4.1,3.9,2.6,4.5,11.3-1.7,10.8-18,.1-35.9,0-53.9-.4-2.6.1-5.3-1.3-4-4.1,3.3-10.9,8.3-9.5,17.5-12.1,4.1-1.4,4.7-7.4,9.9-7.2,3.9-.5,7.6-.4,11.2.5,1.7.4,4,.7,4.7-1.2,1.1-9.7,3.4-19.5,1.8-29.2.1-4.4-1.7-7.7-5.3-10.2-1.4-1.3-2.4-3-4.2-3.4-2.7-.5-6.8.4-7.5,3.3-.3,2.5,2.1,4.3,3.5,6.3,1.5,1.6,2.2,4.1,3.4,5.7,3.2,2.7,4.8,6.7-1,6.6-7.7-.1-15.2.2-22.6.9-4.4,1.3-16.9-2.6-16.2,4.3,0,12,0,35.9,0,35.9,0,0,0,3-.3,4.1s-4.7.6-6,.6c-2,0-1.7-2.4-1.7-3.9.2-13.5-.4-27.2.2-40.7,1-2.5,4.4-3.9,3.8-7.3,2-43.7.7-136.4.7-136.4,0,0,.9.4,4.1,4.1Z"/>
      <path class="cls-11" d="M220.5,317.5c-1,3.1-2.4,6.1-4,9l6,3c-1.9,6-4.6,11.7-8,17-2.5-4.3-5.2-8.5-8-12.5,2-3.6,3.4-7.4,4-11.5-.2-3-1.2-5.7-3-8v-3c3.8.4,7.4,1.2,11,2.5.8,1.1,1.5,2.3,2,3.5Z"/>
      <path class="cls-24" d="M120.5,341.5c3,2.2,5.5,4.8,7.5,8,1.4,6,2.9,12,4.5,18,4.1,1.5,7.1,4.2,9,8,1,1.6,1.1,3.2.5,5-2.7,3.3-4.5,6.9-5.5,11,3.1-.1,5.1,1.2,6,4-3.7,9.1-8.2,17.8-13.5,26-1.2,1.5-2.7,2.7-4.5,3.5,2.2.2,4.2.7,6,1.5-1.7-.2-3.4,0-5,.5-4.5,3.6-9.5,6.1-15,7.5-.2-1.4-1.1-2.4-2.5-3-.3-15,0-30,1-45,3.8-5.5,8-10.6,12.5-15.5-.3-1.3-1-1.6-2-1-3.6,3-7.1,6.2-10.5,9.5-1.3-7.3-1.8-14.6-1.5-22-1.1-.9-2.4-1.3-4-1v19c-.8,7.2-1.3,14.5-1.5,22-.2,1.6-.7,2.9-1.5,4-4.5-3.7-8.5-7.8-12-12.5-1.5-1-3.2-1.5-5-1.5-.1,1.1,0,2.1.5,3,6,6.7,12,13.3,18,20,.5,1.6.7,3.3.5,5,.6,6.3-.1,12.3-2,18-10-3-15.7-9.7-17-20-6.2-.2-11-2.8-14.5-8-7-10.1-7.3-20.4-1-31,3.5-3.5,7.5-6.1,12-8-.8-12.8,4.4-22.1,15.5-28,0,.5.4.9,1,1,8.3-3.1,16.3-2.4,24,2Z"/>
      <g>
        <path class="cls-2" d="M137.5,459.5c-5.9-.4-18,0-18,0,0,0,11-21.7,17-30.5-.1-.8-.5-1.4-1-2-1.6-.5-3.3-.7-5-.5-1.8-.8-3.8-1.3-6-1.5,1.8-.8,3.3-2,4.5-3.5,5.3-8.2,9.8-16.9,13.5-26-.9-2.8-2.9-4.1-6-4,1-4.1,2.8-7.7,5.5-11,.6-1.8.5-3.4-.5-5,1.2.2,2.2-.1,3-1,5-10.5,9.5-21.1,13.5-32,.7-1.3,1.3-1.3,2,0,.7,38,.7,76,0,114-1.1,1.5-2.6,2.2-4.5,2"/>
        <path class="cls-2" d="M154.5,482.5"/>
      </g>
      <path class="cls-22" d="M291.5,417.5c.9,21.7.9,43.3,0,65-2.7,1.3-5.3,1.3-8,0-.8-23.3-.8-46.7,0-70,1.8-16.9,2.5-33.9,2-51v-3c.7-3.9,1.3-7.9,2-12,1.1,23.7,2.4,47.4,4,71Z"/>
      <path class="cls-16" d="M243,429.5c-7.1,8.5-16.1,11.9-27,10-.4-15.7-1.6-31-3.5-46v-38h-6c15.1-1.9,24.1,4.7,27,20,4.2,1.9,11,8,11,8,0,0,8.8,9.7,8.2,22.6s-9.7,23.4-9.7,23.4Z"/>
      <path class="cls-5" d="M346.5,430.5c.7,2.4,1.6,6.6.3,11.4-.4,1.4-.8,2.6-1.3,3.6.2-2.8.4-5.5.6-8.3.1-2.2.3-4.5.4-6.7Z"/>
      <path class="cls-7" d="M186.5,435.5c-1.9-2.8-4.1-5.4-6.5-8-1.7-3.2-3.1-6.5-4-10-3.8-18.1,1.6-32.7,16-44,1-9.2,5.9-15.2,14.5-18h6v38c0,7-.4,14-1,21-.8,9.2-1.8,18.5-3,28-5.7-1.2-11.2-2.8-16.5-5-.8,0-1.3.4-1.5,1"/>
      <path class="cls-18" d="M107.5,357.5h-3c.3,4.2,0,8.2-1,12v-13c1.6-.3,2.9,0,4,1Z"/>
      <path class="cls-32" d="M107.5,357.5c-.3,7.4.2,14.7,1.5,22,3.4-3.3,6.9-6.5,10.5-9.5,1-.6,1.7-.3,2,1-4.5,4.9-8.7,10-12.5,15.5-1,15-1.3,30-1,45,1.4.6,2.2,1.6,2.5,3v48c-2.9.3-5.6,0-8-1,.3-15.5,0-30.8-1-46,1.2-3.5,1.8-7.2,2-11,0-3.2-.3-6.2-1-9,.2-1.7,0-3.4-.5-5-6-6.7-12-13.3-18-20-.5-.9-.6-1.9-.5-3,1.8,0,3.5.5,5,1.5,3.5,4.7,7.5,8.8,12,12.5,1.1,1.2,1.9.9,2.5-1,.5-8.3.7-16.7.5-25v-6c1-3.8,1.3-7.8,1-12h3Z"/>
      <path class="cls-10" d="M285.6,360.5c.5,17.3-.2,34.5-2,51.6-5.8-.3-16-3.5-16-3.5,0,0-1.5-1.6-2-2.5.2-.6.7-.9,1.5-1,5.2,2.8,10.7,4.5,16.5,5.1-.3-16.7.3-33.2,2-49.6Z"/>
      <path class="cls-5" d="M347.5,436.5c-.2,3,0,6,.5,9,1.9,4.2,4.1,8.2,6.5,12-.8,7.9-1.3,15.9-1.5,24-2.6,2.6-5.3,2.6-8,0-.8-12.1-.6-24.1.5-36,.7-3,1.3-6,2-9Z"/>
      <path class="cls-18" d="M103.5,375.5c.2,8.3,0,16.7-.5,25-.6,1.9-1.4,2.2-2.5,1,.8-1.1,1.3-2.4,1.5-4,.2-7.5.7-14.8,1.5-22Z"/>
      <path class="cls-7" d="M346.5,429.9c0-.6,0-4,.8-7,.2-.8.3-1.4.4-1.5.4-1.4.8-2.4,1.2-3.3,6.2-14.8,15.6-27.9,23.4-41.9,0-.1.3-.5.6-.6,1.6-.4,4.1,5.4,4.6,6.4v.2c10.2,15,17.1,32,22.6,49.1.7,2.1.3,5.1.4,7.2-1.2,12.7-9.8,22.9-22.6,26.1-.8.2-1.5.1-1.6-.8-.9-13-1.5-26.2-1.9-39.4.1-3.9.1-7.7-.7-11.5,0-.4-.2-.7-.4-.7-1.4,1.9-1,4.9-1,7.2,0,20.5-2,41.2-2,41.2v1.1c-.2.3-1,.1-1.3,0-1.9-.6-3-.5-9.7-3.3-.7-.3-1.1-.4-1.2-.3,0,0,.1.2.2.3.5.4,1.5,1.4,3,3l-3.1-.9s-3.2-1.7-4.2-3.1c-2.9-4.1-4.8-7.5-5.8-10.7-1-3.4-1.3-6.1-1.7-10.4-.2-2.6-.3-4.6-.2-6.3Z"/>
      <path class="cls-17" d="M212.5,393.5c1.9,15,3.1,30.3,3.5,46,10.9,1.9,28.4-11.3,28.5-12s-4.4,9.5-7.5,11c.7,14.3.5,28.7-.5,43h-7c.4-12,.4-24,0-36-6.8-2.3-10.8,0-12,7-1,9.2-1.3,18.5-1,28h-6v-36c1-9.9,1.3-19.9,1-30,.6-7,.9-14,1-21Z"/>
      <path class="cls-20" d="M323.3,409.4c.8.3,1.7,1.4,2.2,2.2,1.5,2.4,3,4.8,4.7,7.1,6.2,7.6,10,16.7,11.8,26.5,1.2,6.2,0,13-3.9,18-3.1,4.4-9.7,5.3-11.9,10.6-1,2.1-1.2,4.7-2.6,6.3-1.2,1.6-3,.3-3.5-1.2-.8-1.8-.5-4.6-1.2-6.2-1-2.8-4.4-2.5-7-4.2-2.2-1.4-3.5-3.6-5-5.8-6.3-7.7-5.4-18.9-.7-27.1,1.9-3.3,4.8-5.9,6.4-9.4.6-1.4,1.2-2.9,1.7-4.4,1.4-3.6,4-6.5,5.7-9.7.7-1.1,1.5-3.1,3.1-2.8h0Z"/>
      <path class="cls-18" d="M374.5,423.5c-.7-1.7-1.3-3.3-2-5-.3-2.4,0-4.8,1-7,1,3.9,1.3,7.9,1,12Z"/>
      <path class="cls-15" d="M211.5,414.5c.3,10.1,0,20.1-1,30h-1c-7,0-13.4-2-19-6,.2-.6.7-.9,1.5-1,5.3,2.2,10.8,3.8,16.5,5,1.2-9.5,2.2-18.8,3-28Z"/>
      <path class="cls-19" d="M102.5,415.5c.7,2.8,1,5.8,1,9-.2,3.8-.8,7.5-2,11-.8-.3-1.2-1-1-2,1.9-5.7,2.6-11.7,2-18Z"/>
      <path class="cls-31" d="M372.5,418.5c.7,1.7,1.3,3.3,2,5,.4,13.7,1.1,27.4,2,41-1,5.1-1.3,10.5-1,16h-5c.3-3.5,0-6.9-1-10-.8-1.5-1.1-3.2-1-5,.2-1.4,1.1-2.4,2.5-3,.5-8.7.7-17.3.5-26,.6-6,.9-12,1-18Z"/>
      <path class="cls-10" d="M262.5,471.5c-1.5-8.3-3-16.6-4.5-25-.3,6.7-.7,13.3-1,20-.7,2.1-1.5,4.1-2.5,6-9.8-6.3-13.3-15.3-10.5-27,2.8-9.7,7.6-18,14.5-25,2.2.7,4.1,2.1,5.5,4,5.2,8,8.7,16.7,10.5,26,.8,10-3.2,17-12,21Z"/>
      <path class="cls-17" d="M498.7,428.6c13.4-2.4,13.1,7.4,11.2,17.2-1.4,5.7-4.1,11.4-9.6,13.9-7.2,3.2-18.8.9-20-7.8-2.3-11.2,7.7-21.5,18.2-23.3h.2Z"/>
      <path class="cls-10" d="M65.7,433.4c1.4-1.3,3.6-1.6,5.5-1.5,8.5.2,16.8,4.1,21.8,11,4,5.9,5.2,14.7-.1,20-5.2,4.7-13.6,4.8-19,.4-5.3-4.3-10.1-9.4-10.1-16.6,0-4.2-1.1-10.2,1.7-13.2h.1Z"/>
      <path class="cls-1" d="M371.5,436.5c.2,8.7,0,17.3-.5,26-1.4.6-2.2,1.6-2.5,3-1.1-.9-2.5-2-4.4-3-1.8-1-3.5-1.5-4.8-1.9,0-.3-.2-.9-.6-1.5-.4-.6-.9-1-1.2-1.2.3-.2.7-.3,1-.5,3.8,1.9,7.8,3.2,12,4-.3-8.5,0-16.9,1-25Z"/>
      <path class="cls-17" d="M209.5,444.5h1v36h6c-.3-9.5,0-18.8,1-28v29h-8v-37Z"/>
      <path class="cls-29" d="M262.5,471.5c-.5,3.5-1.2,6.8-2,10h-4c.3-2.2,0-4.2-1-6-.6-.9-.9-1.9-1-3,1-1.9,1.8-3.9,2.5-6,.3-6.7.7-13.3,1-20,1.5,8.4,3,16.7,4.5,25Z"/>
      <path class="cls-31" d="M376.5,464.5v17h-7v-11c1,3.1,1.3,6.5,1,10h5c-.3-5.5,0-10.9,1-16Z"/>
      <path class="cls-27" d="M180.5,466.5c4.1-.3,8.1.2,12,1.5,2.3,2.9,5.1,5.1,8.5,6.5,1.2,2.2,1.7,4.5,1.5,7h-30c-.3-3.1.2-6.1,1.5-9,2.3-1.9,4.5-3.9,6.5-6Z"/>
      <path class="cls-28" d="M343.7,424.9"/>
      <rect class="cls-35" x="319.5" y="473.5" width="6.1" height="8.4"/>
      <g>
        <path class="cls-34" d="M462.1,244.4c-10.3,0-18.6-8.4-18.6-18.6s8.4-18.6,18.6-18.6,18.6,8.4,18.6,18.6-8.4,18.6-18.6,18.6ZM462.1,211.1c-8.1,0-14.6,6.6-14.6,14.6s6.6,14.6,14.6,14.6,14.6-6.6,14.6-14.6-6.6-14.6-14.6-14.6Z"/>
        <path class="cls-34" d="M514.9,244.4c-10.3,0-18.6-8.4-18.6-18.6s8.4-18.6,18.6-18.6,18.6,8.4,18.6,18.6-8.4,18.6-18.6,18.6ZM514.9,211.1c-8.1,0-14.6,6.6-14.6,14.6s6.6,14.6,14.6,14.6,14.6-6.6,14.6-14.6-6.6-14.6-14.6-14.6Z"/>
        <path class="cls-34" d="M514.9,227.8c-.9,0-1.7-.6-1.9-1.5l-8.5-33.4c-.3-1.1.4-2.2,1.4-2.4,1.1-.3,2.2.4,2.4,1.4l8.5,33.4c.3,1.1-.4,2.2-1.4,2.4-.2,0-.3,0-.5,0Z"/>
        <path class="cls-34" d="M483.7,207.9l-13.8-9.8c-3.1-2.2-3.7-6.5-1.4-9.5l11.7-14.8c2.6-3.3,7.7-3.4,10.3,0l7.1,8.8c1,1.3,2.4,2.2,4,2.6l8.7,2.3c1.5.4,2.4,1.9,2,3.5-.4,1.3-1.7,2.1-3,2l-9.7-.3c-2.1,0-4-1-5.4-2.5l-4.6-5.1s-.1,0-.1,0l-6.7,7.4s0,.1,0,.1l10.9,8.8c1.7,1.3,2.4,3.5,2,5.6l-4.7,22.3c-.3,2-2,3.5-4,3.5h0c-2.2,0-4-1.8-4-4l2-17.8c.1-1.1-.4-2.3-1.3-2.9Z"/>
        <circle class="cls-34" cx="499.3" cy="166.4" r="8"/>
        <path class="cls-34" d="M479.5,223.8h-13.9l9.9-16.7-3.3-2.3-11.9,20c-.4.6-.4,1.4,0,2,.4.6,1,1,1.7,1h16.9l.5-4Z"/>
        <path class="cls-34" d="M508.2,197.3h-13.2l1.2,1c1.1.9,1.9,1.9,2.5,3.1h5l-3.9,4.4c0,.7,0,1.4-.2,2.1l-1.1,5.3,11.2-12.5c.5-.6.7-1.4.3-2.2s-1-1.2-1.8-1.2Z"/>
      </g>
      <g>
        <path class="cls-36" d="M91.4,242.1c-1.1,0-2.2-.4-3.1-1.1-1-.8-1.7-2-1.8-3.4l-1.5-18.6c0-.8-.5-1.6-1.1-2.2l-9.6-8.2c-1.7-1.5-2.6-3.7-2.3-5.9l1.6-13.7-1.9,1.3c-.7.4-1.1,1.1-1.2,1.9l-1,8.1c-.3,2.4-2.5,4.1-4.8,3.8-1.2-.1-2.2-.7-2.9-1.6-.7-.9-1-2.1-.9-3.2l1.4-11.4c.2-1.9,1.3-3.5,2.9-4.4l8.8-5.3c1.8-1.1,4-1.5,6.1-1.2l3.7.5c2,.3,3.4,2.1,3.2,4.1l-2.4,20.5c0,.7.2,1.3.7,1.8l7.7,6.6c1.2,1,1.9,2.4,2,3.9l1.8,22.5c.2,2.6-1.7,5-4.3,5.3h-.3c-.2,0-.4,0-.6,0ZM92.2,241.1h0,0Z"/>
        <path class="cls-36" d="M99.1,201.7s0,0-.1,0c-1.2,0-2.3-.5-3.1-1.4l-7.7-8.2c-.2-.2-.3-.5-.2-.8l1.3-8.7c0-.4.3-.6.6-.7.3-.1.7,0,.9.3l11.5,12.3c1.6,1.8,1.6,4.5-.2,6.2-.8.8-1.9,1.2-3,1.2Z"/>
        <path class="cls-36" d="M84.2,175.5c-4.5,0-8.2-3.7-8.2-8.2s3.7-8.2,8.2-8.2,8.2,3.7,8.2,8.2-3.7,8.2-8.2,8.2Z"/>
        <path class="cls-36" d="M70.6,242.1c-.3,0-.6,0-.9,0-2.6-.5-4.4-3.1-3.9-5.7h0l4.6-25.9c0-.3.3-.6.6-.7.3-.1.7,0,.9.2l7,5.8c.3.2.4.5.3.9l-3.8,21.5c-.2,1.3-1,2.4-2.1,3.2-.8.6-1.8.9-2.8.9Z"/>
      </g>
      <g>
        <path class="cls-9" d="M304.1,36.8c6.1.4,9,3.9,8.7,10.5-.9,3.7-3,6.1-6.5,7-4.5.6-7.6-1.4-9.3-6-1-4.5.3-8,3.9-10.5,1-.5,2.1-.9,3.1-1.1Z"/>
        <path class="cls-9" d="M276.2,44.7c.7,0,1.3,0,1.9.2,7.6,2.5,14.6,6.2,21,11.2,1.1,1.1,2,2.3,2.6,3.8,1,2.7,2,5.5,3.1,8.2,3.9.6,7.8,1.2,11.6,1.8,2.4,1.4,3,3.4,1.9,6.1-1.1,1.4-2.4,2-4.1,1.5-4.4-.6-8.9-1.3-13.3-1.9-.8-.3-1.4-.8-1.9-1.5-1-2.3-2.1-4.5-3.1-6.8-1.8,3.4-3.6,6.8-5.3,10.3,2.3,4.6,4.5,9.2,6.6,13.8,0,.8,0,1.5,0,2.3-2.7,6.6-5.4,13.2-8.2,19.7-1.4,2.2-3.3,2.8-5.6,2-2.2-1.2-3.1-3.1-2.6-5.7,2.3-5.5,4.6-11,6.9-16.4-3.4-4.6-6.8-9.3-10.1-14-2-3.8-2.1-7.7-.1-11.6,2.2-3.5,4.3-7.1,6.5-10.6-2.1-1.2-4.1-2.4-6.2-3.6-2.8,2.8-5.5,5.7-8.1,8.6-1.6,1-3.2,1-4.8-.2-1.5-1.8-1.5-3.8-.2-5.7,3.3-3.4,6.6-6.9,9.8-10.4.5-.4,1.1-.7,1.6-.9Z"/>
        <path class="cls-9" d="M271.4,76.7c.4,0,.7,0,1,.3.3,1.3.8,2.6,1.4,3.9.9,1.5,1.9,3,3,4.4.2.7,0,1.4-.3,1.9-2.1,2.4-4.3,4.7-6.6,6.9-.9.4-1.8.6-2.7.5-4.8-1.2-9.7-2.3-14.5-3.6-2.6-1.1-3.6-3.1-3.1-6.1.6-1.9,1.8-3,3.7-3.3.5-.1,1-.1,1.5,0,3.7.9,7.5,1.9,11.2,2.8,1.8-2.5,3.6-5.1,5.4-7.8Z"/>
      </g>
    </g>
  </g>
</svg>